<svg width="21" height="22" viewBox="0 0 21 22" xmlns="http://www.w3.org/2000/svg" xmlns:xlink="http://www.w3.org/1999/xlink">
    <defs>
        <path d="M5.727 0v.957h9.546V0h1.909v.957H21V22H0V.957h3.818V0h1.91zm13.364 6.696H1.909v13.391h17.182V6.696zM5.727 16.26v1.913H3.818V16.26h1.91zm3.818 0v1.913H7.636V16.26h1.91zm3.819 0v1.913h-1.91V16.26h1.91zm-7.637-3.826v1.913H3.818v-1.913h1.91zm3.818 0v1.913H7.636v-1.913h1.91zm3.819 0v1.913h-1.91v-1.913h1.91zm3.818 0v1.913h-1.91v-1.913h1.91zM9.545 8.609v1.913H7.636V8.609h1.91zm3.819 0v1.913h-1.91V8.609h1.91zm3.818 0v1.913h-1.91V8.609h1.91zM3.818 2.869H1.91v1.914h17.182V2.87h-1.91v.956h-1.908V2.87H5.727v.956H3.818V2.87z" id="61y7qeb1da"/>
    </defs>
    <use fill="#E24153" xlink:href="#61y7qeb1da" fill-rule="evenodd"/>
</svg>
