<svg width="22" height="23" viewBox="0 0 22 23" xmlns="http://www.w3.org/2000/svg" xmlns:xlink="http://www.w3.org/1999/xlink">
    <defs>
        <path d="M14.997 2.662a5 5 0 0 1-.94 3 2.27 2.27 0 0 1-.62.63l-.19.71h5.749a3 3 0 0 1 2.94 3.619l-2.16 10A3 3 0 0 1 16.836 23H0V7.001h4.589l6.779-6.72.32-.279h.4a2.81 2.81 0 0 1 2.909 2.66zm-2.59-.57L6 8.412V21h10.837a1 1 0 0 0 1-.78l2.13-9.999a1 1 0 0 0-.97-1.22h-8.338l.34-1.25.59-2.25.13-.41.34-.18a1.5 1.5 0 0 0 .44-.44 2.92 2.92 0 0 0 .5-1.81c0-.31-.17-.48-.59-.57zM4 9.002H2V21h2V9.001z" id="214u636q1a"/>
    </defs>
    <use fill="#F2BC35" xlink:href="#214u636q1a" fill-rule="evenodd"/>
</svg>
