<svg width="24" height="26" viewBox="0 0 24 26" xmlns="http://www.w3.org/2000/svg" xmlns:xlink="http://www.w3.org/1999/xlink">
    <defs>
        <path d="m9.333 25.143-.148-.786-.563-2.87a9.385 9.385 0 0 1-2.459-1.482l-2.756.968-.74.241-.386-.695-1.896-3.324L0 16.5l.563-.514 2.133-1.904c-.077-.494-.177-.99-.177-1.51 0-.522.1-1.017.177-1.512L.563 9.157 0 8.643l.385-.695 1.896-3.324.386-.695.74.241 2.756.967a9.385 9.385 0 0 1 2.46-1.48L9.184.786 9.333 0h5.334l.148.786.563 2.87a9.385 9.385 0 0 1 2.459 1.481l2.756-.967.74-.241.386.695 1.896 3.324.385.695-.563.514-2.133 1.903c.077.495.177.99.177 1.511 0 .522-.1 1.017-.177 1.511l2.133 1.904.563.514-.385.695-1.896 3.324-.386.695-.74-.241-2.756-.968a9.385 9.385 0 0 1-2.46 1.481l-.562 2.871-.148.786H9.333zm1.541-1.934h2.252L13.6 20.7l.119-.575.533-.18a7.567 7.567 0 0 0 2.874-1.693l.415-.393.533.181 2.4.846 1.126-1.964-1.896-1.722-.445-.363.148-.574a7.787 7.787 0 0 0 .178-1.693c0-.578-.055-1.14-.178-1.692l-.118-.574.415-.363L21.6 8.22l-1.126-1.965-2.4.847-.533.181-.415-.393a7.567 7.567 0 0 0-2.874-1.692l-.533-.182-.119-.574-.474-2.508h-2.252L10.4 4.442l-.119.574-.533.182A7.567 7.567 0 0 0 6.874 6.89l-.415.393-.533-.181-2.4-.847L2.4 8.22l1.896 1.722.445.363-.148.574a7.787 7.787 0 0 0-.178 1.692c0 .578.055 1.141.178 1.693l.148.574-.445.363L2.4 16.923l1.126 1.964 2.4-.846.533-.181.415.393a7.567 7.567 0 0 0 2.874 1.692l.533.181.119.575.474 2.508zM12 17.407c-2.607 0-4.74-2.176-4.74-4.836 0-2.659 2.133-4.835 4.74-4.835s4.74 2.176 4.74 4.835c0 2.66-2.133 4.836-4.74 4.836zm0-1.934c1.581 0 2.844-1.289 2.844-2.902 0-1.613-1.263-2.9-2.844-2.9s-2.844 1.287-2.844 2.9 1.263 2.902 2.844 2.902z" id="qe27jaguma"/>
    </defs>
    <use fill="#FFF" xlink:href="#qe27jaguma" fill-rule="evenodd"/>
</svg>
