<svg width="25" height="22" viewBox="0 0 25 22" xmlns="http://www.w3.org/2000/svg" xmlns:xlink="http://www.w3.org/1999/xlink">
    <defs>
        <path d="M8.567 20v2H6.616v-2h1.951zm9.756 0v2h-1.951v-2h1.951zm-9.756-4v2H6.616v-2h1.951zm9.756 0v2h-1.951v-2h1.951zm5.03-11.563L25 5.563l-3.902 6-.61.907-.823-.688L15.64 8.47l-4.299 7.062-.518.875-.853-.562-5.122-3.5-3.324 4.281L0 15.375l3.902-5 .55-.719.761.5 5.03 3.438 4.33-7.125.58-.938.853.688L20.03 9.53l3.324-5.094zM18.324 12v2h-1.951v-2h1.951zM8.567 8v2H6.616V8h1.951zm0-4v2H6.616V4h1.951zm9.756 0v2h-1.951V4h1.951zM8.567 0v2H6.616V0h1.951zm9.756 0v2h-1.951V0h1.951z" id="j7qzv10eua"/>
    </defs>
    <use fill="#108808" xlink:href="#j7qzv10eua" fill-rule="evenodd"/>
</svg>
