<svg width="18" height="18" viewBox="0 0 18 18" xmlns="http://www.w3.org/2000/svg" xmlns:xlink="http://www.w3.org/1999/xlink">
    <defs>
        <filter x="-4.3%" y="-3.5%" width="108.7%" height="109.9%" filterUnits="objectBoundingBox" id="7bi6jjyvda">
            <feMorphology radius="1" operator="dilate" in="SourceAlpha" result="shadowSpreadOuter1"/>
            <feOffset dy="16" in="shadowSpreadOuter1" result="shadowOffsetOuter1"/>
            <feGaussianBlur stdDeviation="16" in="shadowOffsetOuter1" result="shadowBlurOuter1"/>
            <feComposite in="shadowBlurOuter1" in2="SourceAlpha" operator="out" result="shadowBlurOuter1"/>
            <feColorMatrix values="0 0 0 0 0 0 0 0 0 0 0 0 0 0 0 0 0 0 0.1 0" in="shadowBlurOuter1"/>
        </filter>
        <filter x="-2.1%" y="-13.8%" width="104.2%" height="137.5%" filterUnits="objectBoundingBox" id="1q5425unnc">
            <feMorphology radius=".5" operator="dilate" in="SourceAlpha" result="shadowSpreadOuter1"/>
            <feOffset dy="2" in="shadowSpreadOuter1" result="shadowOffsetOuter1"/>
            <feGaussianBlur stdDeviation="2" in="shadowOffsetOuter1" result="shadowBlurOuter1"/>
            <feComposite in="shadowBlurOuter1" in2="SourceAlpha" operator="out" result="shadowBlurOuter1"/>
            <feColorMatrix values="0 0 0 0 0 0 0 0 0 0 0 0 0 0 0 0 0 0 0.08 0" in="shadowBlurOuter1"/>
        </filter>
        <rect id="3edbrjfk4b" x="100" y="88" width="1316" height="1156" rx="16"/>
        <rect id="cwlse016vd" x="846" y="202" width="360" height="40" rx="8"/>
        <path d="M7.27 0a7.27 7.27 0 0 1 5.626 11.872l4.892 4.893a.723.723 0 1 1-1.023 1.023l-4.893-4.892A7.27 7.27 0 1 1 7.27 0zm0 1.385a5.885 5.885 0 1 0 0 11.769 5.885 5.885 0 0 0 0-11.77z" id="pqadyi42ve"/>
    </defs>
    <g fill="none" fill-rule="evenodd">
        <path fill="#FFF" d="M-854-213H586v1244H-854z"/>
        <g transform="translate(-854 -213)">
            <use fill="#000" filter="url(#7bi6jjyvda)" xlink:href="#3edbrjfk4b"/>
            <rect stroke-opacity=".08" stroke="#000" fill="#FFF" x="99.5" y="87.5" width="1317" height="1157" rx="16"/>
        </g>
        <g transform="translate(-854 -213)">
            <use fill="#000" filter="url(#1q5425unnc)" xlink:href="#cwlse016vd"/>
            <use stroke="#EAEAEA" fill="#FFF" xlink:href="#cwlse016vd"/>
        </g>
        <use fill="#1F63D9" xlink:href="#pqadyi42ve"/>
    </g>
</svg>
