<svg width="32" height="23" viewBox="0 0 32 23" xmlns="http://www.w3.org/2000/svg" xmlns:xlink="http://www.w3.org/1999/xlink">
    <defs>
        <path d="M188 358.2c2.513 0 4.571 2.04 4.571 4.533 0 1.262-.544 2.4-1.392 3.223a5.663 5.663 0 0 1 2.536 4.71h-2.286c0-1.89-1.523-3.4-3.429-3.4s-3.429 1.51-3.429 3.4h-2.285a5.663 5.663 0 0 1 2.535-4.71c-.848-.823-1.392-1.961-1.392-3.223 0-2.492 2.058-4.533 4.571-4.533zm-10.286-3.4c2.514 0 4.572 2.04 4.572 4.533 0 1.262-.545 2.4-1.393 3.223 1.522 1.023 2.536 2.763 2.536 4.71h-2.286c0-1.89-1.522-3.4-3.429-3.4-1.906 0-3.428 1.51-3.428 3.4H172c0-1.947 1.013-3.687 2.536-4.71-.849-.823-1.393-1.961-1.393-3.223 0-2.492 2.058-4.533 4.571-4.533zm20.572 0c2.513 0 4.571 2.04 4.571 4.533 0 1.262-.545 2.4-1.393 3.223 1.523 1.023 2.536 2.763 2.536 4.71h-2.286c0-1.89-1.522-3.4-3.428-3.4-1.907 0-3.429 1.51-3.429 3.4h-2.286c0-1.947 1.014-3.687 2.536-4.71-.848-.823-1.393-1.961-1.393-3.223 0-2.492 2.058-4.533 4.572-4.533zM188 360.467c-1.277 0-2.286 1-2.286 2.266S186.724 365 188 365c1.277 0 2.286-1 2.286-2.267 0-1.266-1.01-2.266-2.286-2.266zm-10.286-3.4c-1.276 0-2.285 1-2.285 2.266s1.008 2.267 2.285 2.267c1.277 0 2.286-1 2.286-2.267 0-1.266-1.009-2.266-2.286-2.266zm20.572 0c-1.277 0-2.286 1-2.286 2.266s1.009 2.267 2.286 2.267c1.276 0 2.285-1 2.285-2.267 0-1.266-1.009-2.266-2.285-2.266zM182.857 348c2.197 0 4 1.789 4 3.967s-1.803 3.966-4 3.966c-2.196 0-4-1.788-4-3.966s1.804-3.967 4-3.967zm10.286 0c2.196 0 4 1.789 4 3.967s-1.804 3.966-4 3.966c-2.197 0-4-1.788-4-3.966s1.803-3.967 4-3.967zm-10.286 2.267a1.69 1.69 0 0 0-1.714 1.7c0 .951.754 1.7 1.714 1.7a1.69 1.69 0 0 0 1.714-1.7c0-.952-.754-1.7-1.714-1.7zm10.286 0a1.69 1.69 0 0 0-1.714 1.7c0 .951.754 1.7 1.714 1.7a1.69 1.69 0 0 0 1.714-1.7c0-.952-.754-1.7-1.714-1.7z" id="io0dgnzhua"/>
    </defs>
    <use fill="#7D7D7D" xlink:href="#io0dgnzhua" transform="translate(-172 -348)" fill-rule="evenodd"/>
</svg>
