<svg width="14" height="14" viewBox="0 0 14 14" fill="none" xmlns="http://www.w3.org/2000/svg">
<g opacity="0.8">
<path d="M7.00008 1.16699C3.78008 1.16699 1.16675 3.78033 1.16675 7.00033C1.16675 10.2203 3.78008 12.8337 7.00008 12.8337C10.2201 12.8337 12.8334 10.2203 12.8334 7.00033C12.8334 3.78033 10.2201 1.16699 7.00008 1.16699ZM7.00008 2.91699C7.96842 2.91699 8.75008 3.69866 8.75008 4.66699C8.75008 5.63533 7.96842 6.41699 7.00008 6.41699C6.03175 6.41699 5.25008 5.63533 5.25008 4.66699C5.25008 3.69866 6.03175 2.91699 7.00008 2.91699ZM7.00008 11.2003C5.54175 11.2003 4.25258 10.4537 3.50008 9.32199C3.51758 8.16116 5.83342 7.52533 7.00008 7.52533C8.16092 7.52533 10.4826 8.16116 10.5001 9.32199C9.74758 10.4537 8.45842 11.2003 7.00008 11.2003Z" fill="#609B14"/>
</g>
</svg>
