<svg width="62" height="17" viewBox="0 0 62 17" fill="none" xmlns="http://www.w3.org/2000/svg">
<g filter="url(#filter0_d)">
<path d="M7.255 2.17V4.305H9.29V4.98H7.255V7.13H6.525V4.98H4.5V4.305H6.525V2.17H7.255ZM18.9994 8H18.2494C18.1627 8 18.0927 7.97833 18.0394 7.935C17.986 7.89167 17.946 7.83667 17.9194 7.77L17.2494 6.04H14.0344L13.3644 7.77C13.341 7.83 13.301 7.88333 13.2444 7.93C13.1877 7.97667 13.1177 8 13.0344 8H12.2844L15.1494 0.835H16.1344L18.9994 8ZM14.3044 5.34H16.9794L15.8544 2.425C15.781 2.245 15.7094 2.02 15.6394 1.75C15.6027 1.88667 15.566 2.01333 15.5294 2.13C15.496 2.24333 15.4627 2.34333 15.4294 2.43L14.3044 5.34ZM23.5763 8C23.4496 8 23.3696 7.93833 23.3363 7.815L23.2563 7.2C23.0396 7.46333 22.7913 7.675 22.5113 7.835C22.2346 7.99167 21.9163 8.07 21.5563 8.07C21.2663 8.07 21.0029 8.015 20.7663 7.905C20.5296 7.79167 20.3279 7.62667 20.1613 7.41C19.9946 7.19333 19.8663 6.92333 19.7763 6.6C19.6863 6.27667 19.6413 5.905 19.6413 5.485C19.6413 5.11167 19.6913 4.765 19.7913 4.445C19.8913 4.12167 20.0346 3.84167 20.2213 3.605C20.4113 3.36833 20.6413 3.18333 20.9113 3.05C21.1813 2.91333 21.4879 2.845 21.8313 2.845C22.1413 2.845 22.4063 2.89833 22.6263 3.005C22.8463 3.10833 23.0429 3.255 23.2163 3.445V0.635H24.1063V8H23.5763ZM21.8512 7.35C22.1413 7.35 22.3946 7.28333 22.6113 7.15C22.8313 7.01667 23.0329 6.82833 23.2163 6.585V4.135C23.0529 3.915 22.8729 3.76167 22.6763 3.675C22.4829 3.585 22.2679 3.54 22.0313 3.54C21.5579 3.54 21.1946 3.70833 20.9413 4.045C20.6879 4.38167 20.5613 4.86167 20.5613 5.485C20.5613 5.815 20.5896 6.09833 20.6463 6.335C20.7029 6.56833 20.7863 6.76167 20.8963 6.915C21.0063 7.065 21.1413 7.175 21.3013 7.245C21.4613 7.315 21.6446 7.35 21.8512 7.35ZM29.4122 8C29.2855 8 29.2055 7.93833 29.1722 7.815L29.0922 7.2C28.8755 7.46333 28.6272 7.675 28.3472 7.835C28.0705 7.99167 27.7522 8.07 27.3922 8.07C27.1022 8.07 26.8389 8.015 26.6022 7.905C26.3655 7.79167 26.1639 7.62667 25.9972 7.41C25.8305 7.19333 25.7022 6.92333 25.6122 6.6C25.5222 6.27667 25.4772 5.905 25.4772 5.485C25.4772 5.11167 25.5272 4.765 25.6272 4.445C25.7272 4.12167 25.8705 3.84167 26.0572 3.605C26.2472 3.36833 26.4772 3.18333 26.7472 3.05C27.0172 2.91333 27.3239 2.845 27.6672 2.845C27.9772 2.845 28.2422 2.89833 28.4622 3.005C28.6822 3.10833 28.8789 3.255 29.0522 3.445V0.635H29.9422V8H29.4122ZM27.6872 7.35C27.9772 7.35 28.2305 7.28333 28.4472 7.15C28.6672 7.01667 28.8689 6.82833 29.0522 6.585V4.135C28.8889 3.915 28.7089 3.76167 28.5122 3.675C28.3189 3.585 28.1039 3.54 27.8672 3.54C27.3939 3.54 27.0305 3.70833 26.7772 4.045C26.5239 4.38167 26.3972 4.86167 26.3972 5.485C26.3972 5.815 26.4255 6.09833 26.4822 6.335C26.5389 6.56833 26.6222 6.76167 26.7322 6.915C26.8422 7.065 26.9772 7.175 27.1372 7.245C27.2972 7.315 27.4805 7.35 27.6872 7.35ZM33.8667 8V2.935H34.3967C34.5234 2.935 34.6034 2.99667 34.6367 3.12L34.7067 3.67C34.9267 3.42667 35.1717 3.23 35.4417 3.08C35.7151 2.93 36.0301 2.855 36.3867 2.855C36.6634 2.855 36.9067 2.90167 37.1167 2.995C37.3301 3.085 37.5067 3.215 37.6467 3.385C37.7901 3.55167 37.8984 3.75333 37.9717 3.99C38.0451 4.22667 38.0817 4.48833 38.0817 4.775V8H37.1917V4.775C37.1917 4.39167 37.1034 4.095 36.9267 3.885C36.7534 3.67167 36.4867 3.565 36.1267 3.565C35.8634 3.565 35.6167 3.62833 35.3867 3.755C35.1601 3.88167 34.9501 4.05333 34.7567 4.27V8H33.8667ZM43.3934 8H42.9984C42.9117 8 42.8417 7.98667 42.7884 7.96C42.735 7.93333 42.7 7.87667 42.6834 7.79L42.5834 7.32C42.45 7.44 42.32 7.54833 42.1934 7.645C42.0667 7.73833 41.9334 7.81833 41.7934 7.885C41.6534 7.94833 41.5034 7.99667 41.3434 8.03C41.1867 8.06333 41.0117 8.08 40.8184 8.08C40.6217 8.08 40.4367 8.05333 40.2634 8C40.0934 7.94333 39.945 7.86 39.8184 7.75C39.6917 7.64 39.59 7.50167 39.5134 7.335C39.44 7.165 39.4034 6.965 39.4034 6.735C39.4034 6.535 39.4584 6.34333 39.5684 6.16C39.6784 5.97333 39.855 5.80833 40.0984 5.665C40.345 5.52167 40.6667 5.405 41.0634 5.315C41.46 5.22167 41.945 5.16833 42.5184 5.155V4.76C42.5184 4.36667 42.4334 4.07 42.2634 3.87C42.0967 3.66667 41.8484 3.565 41.5184 3.565C41.3017 3.565 41.1184 3.59333 40.9684 3.65C40.8217 3.70333 40.6934 3.765 40.5834 3.835C40.4767 3.90167 40.3834 3.96333 40.3034 4.02C40.2267 4.07333 40.15 4.1 40.0734 4.1C40.0134 4.1 39.96 4.085 39.9134 4.055C39.87 4.02167 39.835 3.98167 39.8084 3.935L39.6484 3.65C39.9284 3.38 40.23 3.17833 40.5534 3.045C40.8767 2.91167 41.235 2.845 41.6284 2.845C41.9117 2.845 42.1634 2.89167 42.3834 2.985C42.6034 3.07833 42.7884 3.20833 42.9384 3.375C43.0884 3.54167 43.2017 3.74333 43.2784 3.98C43.355 4.21667 43.3934 4.47667 43.3934 4.76V8ZM41.0834 7.455C41.24 7.455 41.3834 7.44 41.5134 7.41C41.6434 7.37667 41.765 7.33167 41.8784 7.275C41.995 7.215 42.105 7.14333 42.2084 7.06C42.315 6.97667 42.4184 6.88167 42.5184 6.775V5.72C42.1084 5.73333 41.76 5.76667 41.4734 5.82C41.1867 5.87 40.9534 5.93667 40.7734 6.02C40.5934 6.10333 40.4617 6.20167 40.3784 6.315C40.2984 6.42833 40.2584 6.555 40.2584 6.695C40.2584 6.82833 40.28 6.94333 40.3234 7.04C40.3667 7.13667 40.425 7.21667 40.4984 7.28C40.5717 7.34 40.6584 7.385 40.7584 7.415C40.8584 7.44167 40.9667 7.455 41.0834 7.455ZM44.9917 8V2.935H45.5217C45.6484 2.935 45.7284 2.99667 45.7617 3.12L45.8267 3.64C46.0134 3.41 46.2217 3.22167 46.4517 3.075C46.6851 2.92833 46.9551 2.855 47.2617 2.855C47.6051 2.855 47.8817 2.95 48.0917 3.14C48.3051 3.33 48.4584 3.58667 48.5517 3.91C48.6217 3.72667 48.7134 3.56833 48.8267 3.435C48.9434 3.30167 49.0734 3.19167 49.2167 3.105C49.3601 3.01833 49.5117 2.955 49.6717 2.915C49.8351 2.875 50.0001 2.855 50.1667 2.855C50.4334 2.855 50.6701 2.89833 50.8767 2.985C51.0867 3.06833 51.2634 3.19167 51.4067 3.355C51.5534 3.51833 51.6651 3.72 51.7417 3.96C51.8184 4.19667 51.8567 4.46833 51.8567 4.775V8H50.9667V4.775C50.9667 4.37833 50.8801 4.07833 50.7067 3.875C50.5334 3.66833 50.2817 3.565 49.9517 3.565C49.8051 3.565 49.6651 3.59167 49.5317 3.645C49.4017 3.695 49.2867 3.77 49.1867 3.87C49.0867 3.97 49.0067 4.09667 48.9467 4.25C48.8901 4.4 48.8617 4.575 48.8617 4.775V8H47.9717V4.775C47.9717 4.36833 47.8901 4.065 47.7267 3.865C47.5634 3.665 47.3251 3.565 47.0117 3.565C46.7917 3.565 46.5867 3.625 46.3967 3.745C46.2101 3.86167 46.0384 4.02167 45.8817 4.225V8H44.9917ZM55.4596 2.855C55.7629 2.855 56.0429 2.90667 56.2996 3.01C56.5563 3.11 56.7779 3.25667 56.9646 3.45C57.1513 3.64 57.2963 3.87667 57.3996 4.16C57.5063 4.44 57.5596 4.76 57.5596 5.12C57.5596 5.26 57.5446 5.35333 57.5146 5.4C57.4846 5.44667 57.4279 5.47 57.3446 5.47H53.9746C53.9813 5.79 54.0246 6.06833 54.1046 6.305C54.1846 6.54167 54.2946 6.74 54.4346 6.9C54.5746 7.05667 54.7413 7.175 54.9346 7.255C55.1279 7.33167 55.3446 7.37 55.5846 7.37C55.8079 7.37 55.9996 7.345 56.1596 7.295C56.3229 7.24167 56.4629 7.185 56.5796 7.125C56.6963 7.065 56.7929 7.01 56.8696 6.96C56.9496 6.90667 57.0179 6.88 57.0746 6.88C57.1479 6.88 57.2046 6.90833 57.2446 6.965L57.4946 7.29C57.3846 7.42333 57.2529 7.54 57.0996 7.64C56.9463 7.73667 56.7813 7.81667 56.6046 7.88C56.4313 7.94333 56.2513 7.99 56.0646 8.02C55.8779 8.05333 55.6929 8.07 55.5096 8.07C55.1596 8.07 54.8363 8.01167 54.5396 7.895C54.2463 7.775 53.9913 7.60167 53.7746 7.375C53.5613 7.145 53.3946 6.86167 53.2746 6.525C53.1546 6.18833 53.0946 5.80167 53.0946 5.365C53.0946 5.01167 53.1479 4.68167 53.2546 4.375C53.3646 4.06833 53.5213 3.80333 53.7246 3.58C53.9279 3.35333 54.1763 3.17667 54.4696 3.05C54.7629 2.92 55.0929 2.855 55.4596 2.855ZM55.4796 3.51C55.0496 3.51 54.7113 3.635 54.4646 3.885C54.2179 4.13167 54.0646 4.475 54.0046 4.915H56.7596C56.7596 4.70833 56.7313 4.52 56.6746 4.35C56.6179 4.17667 56.5346 4.02833 56.4246 3.905C56.3146 3.77833 56.1796 3.68167 56.0196 3.615C55.8629 3.545 55.6829 3.51 55.4796 3.51Z" fill="#1464DF"/>
</g>
<defs>
<filter id="filter0_d" x="0.5" y="0.63501" width="61.0596" height="15.445" filterUnits="userSpaceOnUse" color-interpolation-filters="sRGB">
<feFlood flood-opacity="0" result="BackgroundImageFix"/>
<feColorMatrix in="SourceAlpha" type="matrix" values="0 0 0 0 0 0 0 0 0 0 0 0 0 0 0 0 0 0 127 0" result="hardAlpha"/>
<feOffset dy="4"/>
<feGaussianBlur stdDeviation="2"/>
<feComposite in2="hardAlpha" operator="out"/>
<feColorMatrix type="matrix" values="0 0 0 0 0 0 0 0 0 0 0 0 0 0 0 0 0 0 0.25 0"/>
<feBlend mode="normal" in2="BackgroundImageFix" result="effect1_dropShadow"/>
<feBlend mode="normal" in="SourceGraphic" in2="effect1_dropShadow" result="shape"/>
</filter>
</defs>
</svg>
