<svg width="21" height="20" viewBox="0 0 21 20" xmlns="http://www.w3.org/2000/svg">
    <path d="M6.145 0v.87h8.74V0h1.75v.87h3.496V20H.9V.87h3.496V0h1.749zm12.237 6.087H2.648v12.174h15.734V6.087zM6.145 14.783v1.739H4.396v-1.74h1.749zm3.496 0v1.739H7.893v-1.74H9.64zm3.497 0v1.739h-1.749v-1.74h1.749zm-6.993-3.479v1.74H4.396v-1.74h1.749zm3.496 0v1.74H7.893v-1.74H9.64zm3.497 0v1.74h-1.749v-1.74h1.749zm3.496 0v1.74h-1.748v-1.74h1.748zM9.641 7.826v1.74H7.893v-1.74H9.64zm3.497 0v1.74h-1.749v-1.74h1.749zm3.496 0v1.74h-1.748v-1.74h1.748zM4.396 2.61H2.648v1.739h15.734v-1.74h-1.748v.87h-1.748v-.87H6.145v.87H4.396v-.87z" fill="#286CE2" fill-rule="evenodd"/>
</svg>
