<svg width="56" height="56" viewBox="0 0 56 56" fill="none" xmlns="http://www.w3.org/2000/svg">
<path fill-rule="evenodd" clip-rule="evenodd" d="M28 56C43.464 56 56 43.464 56 28C56 12.536 43.464 0 28 0C12.536 0 0 12.536 0 28C0 43.464 12.536 56 28 56Z" fill="#E2FBD7"/>
<g clip-path="url(#clip0)">
<path d="M28 17.9998C22.48 17.9998 18 22.4798 18 27.9998C18 33.5198 22.48 37.9998 28 37.9998C33.52 37.9998 38 33.5198 38 27.9998C38 22.4798 33.52 17.9998 28 17.9998ZM28 35.9998C23.59 35.9998 20 32.4098 20 27.9998C20 23.5898 23.59 19.9998 28 19.9998C32.41 19.9998 36 23.5898 36 27.9998C36 32.4098 32.41 35.9998 28 35.9998ZM32.59 23.5798L26 30.1698L23.41 27.5898L22 28.9998L26 32.9998L34 24.9998L32.59 23.5798Z" fill="#34B53A"/>
</g>
<defs>
<clipPath id="clip0">
<rect width="24" height="24" fill="white" transform="translate(16 15.9998)"/>
</clipPath>
</defs>
</svg>
