<svg width="24" height="24" viewBox="0 0 24 24" xmlns="http://www.w3.org/2000/svg">
    <path d="M2.395 1.385 7.7 6.632c1.325-.49 2.77-.822 4.301-.822 6.324 0 11.325 5.45 11.536 5.682L24 12l-.464.508c-.138.15-2.359 2.56-5.67 4.183l4.863 4.812-1.124 1.112-5.304-5.247-1.49-1.5-8.677-8.583-4.863-4.788 1.124-1.112zm2.322 6.674 1.955 1.958a5.345 5.345 0 0 0-.147 1.21c0 2.986 2.457 5.416 5.475 5.416.422 0 .825-.055 1.222-.145l1.393 1.378c-.608.139-1.237.224-1.882.266a7.341 7.341 0 0 1-.733.048c-.247 0-.492-.024-.733-.048-5.088-.338-9.203-4.03-10.433-5.252l-.092-.092a9.488 9.488 0 0 1-.278-.29L0 12l.464-.508c.116-.13 1.745-1.907 4.253-3.433zM18.843 9.63c.125.52.196 1.055.196 1.596a6.894 6.894 0 0 1-1.076 3.676A20.32 20.32 0 0 0 21.85 12a20.553 20.553 0 0 0-3.006-2.37zM12 7.357c-1.066 0-2.084.212-3.055.508l1.589 1.572A2.33 2.33 0 0 1 12 8.905c1.295 0 2.346 1.04 2.346 2.321 0 .553-.21 1.055-.537 1.451l2.224 2.2a5.359 5.359 0 0 0 1.442-3.65c0-.98-.278-1.923-.783-2.757-1.417-.644-3.009-1.113-4.692-1.113zM5.157 9.63A20.384 20.384 0 0 0 2.15 12a20.185 20.185 0 0 0 3.861 2.878 6.818 6.818 0 0 1-1.05-3.652c0-.54.07-1.073.195-1.596z" fill="#949494" fill-rule="evenodd"/>
</svg>
