<svg width="24" height="24" viewBox="0 0 24 24" xmlns="http://www.w3.org/2000/svg">
    <path d="M12 6c6.52 0 11.536 5.967 11.536 5.967L24 12.5l-.464.533s-4.574 5.418-10.656 5.916c-.29.038-.58.051-.88.051-.3 0-.59-.013-.88-.05C5.038 18.45.464 13.032.464 13.032L0 12.5l.464-.533S5.481 6 12 6zm0 1.625c-1.741 0-3.348.501-4.741 1.168h.024a5.825 5.825 0 0 0-.758 2.895c0 2.935 2.12 5.347 4.864 5.662.202.012.403.025.611.025.19 0 .376-.016.562-.025h.049c2.743-.315 4.864-2.727 4.864-5.663a5.763 5.763 0 0 0-.783-2.92c-1.38-.653-2.969-1.142-4.692-1.142zm-6.843 2.387A18.906 18.906 0 0 0 2.248 12.5c.45.476 1.818 1.888 3.789 3.072a7.464 7.464 0 0 1-.88-5.56zm13.686 0a7.464 7.464 0 0 1-.88 5.56 18.278 18.278 0 0 0 3.789-3.072c-.376-.4-1.424-1.46-2.909-2.488zM12 9.25c1.295 0 2.346 1.092 2.346 2.438 0 1.345-1.05 2.437-2.346 2.437-1.295 0-2.346-1.092-2.346-2.438 0-1.345 1.05-2.437 2.346-2.437z" fill="#949494" fill-rule="evenodd"/>
</svg>
