<svg width="24" height="24" viewBox="0 0 24 24" fill="none" xmlns="http://www.w3.org/2000/svg">
<path d="M20.7877 11.5027L12.7591 3.74586L11.9871 3L5.96569 8.81767L3.21229 11.4779C2.92924 11.7514 2.92924 12.1989 3.21229 12.4973L8.71909 17.8177L11.9871 21L18.0085 15.1823L18.1115 15.0829L20.7877 12.4973C21.0708 12.2237 21.0708 11.7763 20.7877 11.5027ZM11.9871 14.6603L9.23375 12L11.9871 9.33975L14.7405 12L11.9871 14.6603Z" fill="#2684FF"/>
<path d="M11.6824 9.34032C9.94208 7.60002 9.94208 4.76573 11.6576 3.02539L5.83984 8.84307L8.99731 12.0006L11.6824 9.34032Z" fill="url(#paint0_linear_136_547)"/>
<path d="M14.3438 12L11.6836 14.6603C13.4239 16.4006 13.4239 19.2348 11.6836 21L17.5261 15.1574L14.3438 12Z" fill="url(#paint1_linear_136_547)"/>
<defs>
<linearGradient id="paint0_linear_136_547" x1="11.2079" y1="6.64513" x2="7.49266" y2="10.3603" gradientUnits="userSpaceOnUse">
<stop offset="0.176" stop-color="#0052CC"/>
<stop offset="1" stop-color="#2684FF"/>
</linearGradient>
<linearGradient id="paint1_linear_136_547" x1="12.1924" y1="17.3169" x2="15.9002" y2="13.6092" gradientUnits="userSpaceOnUse">
<stop offset="0.176" stop-color="#0052CC"/>
<stop offset="1" stop-color="#2684FF"/>
</linearGradient>
</defs>
</svg>
