<svg width="360" height="97" xmlns="http://www.w3.org/2000/svg">
    <g fill="none" fill-rule="evenodd">
        <path fill="#231F20" fill-rule="nonzero" d="M102 74V1h5.086v68.133H142v4.77zM167.853 72.981c-7.833 0-13.926-2.46-18.277-7.38C145.224 60.68 143 53.79 143 44.933c0-8.76 2.127-15.747 6.382-21.06C153.637 18.656 159.342 16 166.5 16c6.382 0 11.314 2.264 14.989 6.79C185.163 27.319 187 33.42 187 41.195v4.035h-38.875c.097 7.48 1.838 13.286 5.222 17.222 3.385 3.937 8.22 6.003 14.602 6.003 2.708 0 5.416-.196 8.124-.689 2.997-.688 5.995-1.574 8.8-2.854v4.527c-2.708 1.28-5.513 2.166-8.414 2.756-2.9.59-5.705.886-8.606.787zm-1.45-52.454c-5.223 0-9.381 1.771-12.476 5.216-3.094 3.444-4.931 8.463-5.512 15.057h33.363c0-6.397-1.354-11.317-4.062-14.959-2.707-3.444-6.962-5.51-11.314-5.314zM237 18.184v3.41l-11.135.682c2.905 3.41 4.454 7.794 4.454 12.275.194 4.774-1.743 9.353-5.229 12.665-3.486 3.215-8.133 4.871-13.943 4.871-1.743 0-3.486-.097-5.132-.292a13.5 13.5 0 0 0-4.454 3.605c-.968 1.266-1.55 2.825-1.55 4.481-.096 1.56.679 3.02 1.937 3.8 1.26.78 3.486 1.169 6.585 1.169h9.392c5.906 0 10.36 1.17 13.459 3.605 3.098 2.338 4.648 5.943 4.648 10.522.193 5.358-2.324 10.424-6.875 13.347C224.509 95.44 217.925 97 209.404 97c-6.778 0-12.007-1.364-15.783-3.994-3.582-2.436-5.713-6.625-5.616-11.01-.097-3.41 1.162-6.819 3.486-9.255 2.518-2.63 5.81-4.384 9.392-5.066-1.549-.682-2.905-1.656-3.873-3.02-.968-1.266-1.452-2.825-1.452-4.384 0-3.605 2.324-6.82 6.875-9.548a15.118 15.118 0 0 1-7.36-6.137c-1.742-2.826-2.71-6.235-2.614-9.548 0-5.456 1.743-9.742 5.132-13.055 3.39-3.312 8.037-4.87 13.846-4.968a25.838 25.838 0 0 1 8.23 1.071l17.333.098zm-43.67 63.52c0 7.502 5.52 11.204 16.558 11.204 14.137 0 21.206-4.579 21.302-13.64 0-3.312-1.065-5.65-3.292-7.111-2.227-1.462-5.81-2.144-10.748-2.144h-9.005c-9.876-.097-14.814 3.8-14.814 11.691zm4.067-46.568c0 4.189 1.26 7.404 3.777 9.742 2.517 2.338 5.906 3.41 10.167 3.507 4.55 0 7.94-1.169 10.36-3.41 2.42-2.24 3.583-5.65 3.68-9.937 0-4.579-1.26-8.086-3.68-10.424-2.42-2.338-5.906-3.507-10.36-3.507-4.26 0-7.65 1.266-10.167 3.702-2.518 2.435-3.68 5.845-3.777 10.327zM275.291 73.022l-1.268-8.524h-.39c-2.245 3.003-5.076 5.521-8.394 7.362-3.22 1.55-6.734 2.228-10.247 2.13-5.368 0-9.467-1.355-12.492-4.068-2.928-2.712-4.49-6.49-4.49-11.237-.195-4.94 2.343-9.687 6.637-12.302 4.392-2.906 10.833-4.456 19.226-4.65l10.345-.29v-3.585c0-5.134-1.074-9.009-3.123-11.624-2.147-2.616-5.465-3.875-10.15-3.875-5.465.097-10.833 1.55-15.615 4.166l-1.854-4.263A42.003 42.003 0 0 1 261.238 18c5.953 0 10.442 1.55 13.37 4.65 2.928 3.1 4.392 7.846 4.392 14.433v35.94h-3.709zm-20.006-3.39c5.758 0 10.345-1.647 13.76-4.94 3.319-3.294 5.075-7.847 4.978-13.756v-5.328l-9.467.387c-7.612.388-13.078 1.55-16.298 3.585-3.22 2.034-4.88 5.134-4.88 9.396 0 3.39 1.074 6.006 3.123 7.847 1.952 1.84 4.977 2.712 8.784 2.809zM303.897 69.563c2.701 0 5.402-.196 8.103-.786v4.029c-2.701.884-5.402 1.278-8.2 1.18-4.726 0-8.295-1.278-10.514-3.833-2.218-2.555-3.376-6.683-3.376-12.186V22.59H282v-2.948l7.91-2.26L292.418 5h2.508v13.266h15.82v4.324h-15.82v34.69c0 4.225.772 7.271 2.219 9.335 1.447 2.064 3.665 2.948 6.752 2.948zM360 45.9c0 8.816-2.137 15.694-6.412 20.635-4.275 4.94-10.201 7.46-17.779 7.46a22.809 22.809 0 0 1-12.533-3.391c-3.691-2.422-6.606-5.813-8.355-9.882-2.04-4.65-3.012-9.687-2.914-14.822 0-8.815 2.137-15.694 6.412-20.537 4.274-4.941 10.2-7.363 17.584-7.363 7.481 0 13.31 2.519 17.488 7.46 4.274 4.94 6.412 11.721 6.509 20.44zm-42.747 0c0 7.46 1.651 13.175 4.857 17.341 3.304 4.166 7.87 6.2 13.893 6.2 6.024 0 10.59-2.034 13.893-6.2 3.303-4.166 4.955-9.978 4.858-17.34 0-7.46-1.652-13.273-4.955-17.342-3.303-4.068-7.967-6.2-13.893-6.103-6.023 0-10.59 2.035-13.796 6.103-3.303 4.07-4.857 9.882-4.857 17.341zM251 94h-.72v-4.45h-5.662V94H244v-9h.618v3.956h5.661V85H251zM255.936 93.985c-.8.1-1.512-.3-2.135-.898-.534-.699-.801-1.597-.801-2.495 0-.898.178-1.796.712-2.594.445-.699 1.246-.998 1.957-.998.623 0 1.335.3 1.691.798.445.599.712 1.397.623 2.195v.5h-4.45c0 .798.179 1.496.624 2.095.445.499 1.068.798 1.69.698.356 0 .623 0 .89-.1.356-.1.712-.2.979-.299v.599c-.267.2-.623.3-.979.3-.089.099-.445.199-.8.199zm-.178-6.486c-.533 0-1.067.2-1.423.599-.356.499-.623 1.197-.623 1.895h3.826c0-.698-.089-1.297-.445-1.796-.356-.499-.8-.698-1.335-.698zM264.444 93.897l-.185-1.132a2.98 2.98 0 0 1-1.018.926c-.37.206-.834.309-1.204.309-.556 0-1.018-.103-1.481-.515a2.15 2.15 0 0 1-.556-1.44c0-.619.278-1.236.833-1.545.741-.412 1.482-.618 2.315-.618h1.204v-.411c0-.515-.093-1.03-.37-1.442-.278-.411-.741-.514-1.204-.514-.648 0-1.297.206-1.852.514l-.185-.514c.648-.31 1.389-.515 2.13-.515.555 0 1.11.206 1.573.618.37.514.556 1.235.556 1.853V94l-.556-.103zm-2.314-.412c.555 0 1.203-.206 1.666-.617.37-.515.648-1.133.556-1.75v-.72l-1.111.102c-.648 0-1.297.103-1.945.412-.37.206-.648.72-.555 1.235 0 .412.092.72.37 1.03.278.205.648.308 1.019.308zM267.8 94h-.6v-9h.6zM271.872 93.499c.41 0 .718 0 1.128-.093v.463c-.308.093-.718.185-1.128.093-.513 0-1.026-.093-1.436-.463-.308-.37-.513-.926-.41-1.389v-4.073H269v-.37l1.026-.278.307-1.389h.308v1.481h2.051v.463h-2.051v4.166c0 .37.103.74.308 1.018.205.278.513.37.923.37zM279.364 93.898v-4.49c0-.51-.091-1.122-.364-1.53-.364-.307-.818-.51-1.273-.51-.636-.103-1.182.203-1.636.612a4.01 4.01 0 0 0-.546 2.04v3.776H275V84h.545v4.082c.182-.409.546-.715.91-.919.454-.204.909-.306 1.363-.306 1.455 0 2.182.816 2.182 2.551V94l-.636-.102zM287.866 94h-.732v-8.407H284V85h7v.593h-3.134zM294.532 93.985c-.958.1-1.81-.3-2.554-.898a3.69 3.69 0 0 1-.958-2.495c-.106-.898.213-1.796.852-2.594.532-.699 1.49-.998 2.34-.998.746 0 1.597.3 2.023.798.532.599.851 1.397.745 2.195v.5h-5.321c0 .798.213 1.496.745 2.095.532.499 1.277.798 2.022.698.319 0 .744 0 1.064-.1.425-.1.851-.2 1.17-.299v.599c-.319.2-.745.3-1.17.3-.213.099-.639.199-.958.199zm-.213-6.486c-.638 0-1.277.2-1.703.599-.425.499-.744 1.197-.744 1.895h4.576c0-.698-.107-1.297-.533-1.796-.425-.499-1.064-.698-1.596-.698zM301.205 93.985c-.897.1-1.694-.303-2.292-.91-.599-.706-.898-1.615-.898-2.524-.1-1.01.3-1.92.898-2.627.598-.606 1.495-1.01 2.392-.909.598 0 1.197.101 1.695.303l-.2.606a4.086 4.086 0 0 0-1.595-.303c-.697 0-1.395.202-1.894.808-.498.606-.698 1.414-.698 2.223 0 .808.2 1.515.698 2.12.499.506 1.097.809 1.795.809.598 0 1.196-.101 1.794-.303v.505c-.498.1-1.096.202-1.695.202zM309.364 93.898v-4.49c0-.51-.091-1.122-.364-1.53-.364-.307-.818-.51-1.273-.51-.636-.103-1.182.203-1.636.612a4.01 4.01 0 0 0-.546 2.04v3.776H305V84h.545v4.082c.182-.409.546-.715.91-.919.454-.204.909-.306 1.363-.306 1.455 0 2.182.816 2.182 2.551V94l-.636-.102zM317.444 94v-4.39c0-.5-.092-1.098-.37-1.497-.37-.3-.833-.5-1.296-.5-.648-.099-1.204.2-1.667.6a3.801 3.801 0 0 0-.555 1.995V93.9H313v-6.685h.463l.093.898c.555-.799 1.388-1.198 2.222-1.098 1.481 0 2.222.798 2.222 2.495v4.39l-.556.1zM325.982 90.5c.096.896-.193 1.892-.77 2.589-.577.597-1.346.995-2.212.896-.577 0-1.058-.1-1.539-.399-.48-.298-.77-.696-1.058-1.194-.289-.598-.385-1.195-.385-1.892-.096-.896.193-1.792.77-2.589.577-.597 1.346-.995 2.212-.896.866 0 1.635.299 2.116.896.673.697.962 1.593.866 2.589zm-5.29 0c0 .797.192 1.493.577 2.19.865.996 2.308.996 3.27.1l.096-.1a4.259 4.259 0 0 0 0-4.28c-.385-.499-1.058-.797-1.731-.797s-1.25.199-1.732.796c-.288.498-.48 1.294-.48 2.091zM328.8 94h-.6v-9h.6zM335.982 90.492c.096.898-.193 1.896-.77 2.595-.577.598-1.346.998-2.212.898-.577 0-1.058-.1-1.539-.4-.48-.299-.77-.698-1.058-1.197-.289-.598-.385-1.197-.385-1.896-.096-.898.193-1.796.77-2.594 1.25-1.197 3.174-1.197 4.328 0 .577.699.866 1.597.866 2.594zm-5.29 0c-.097.799.192 1.497.577 2.196.865.997 2.308.997 3.27.1l.096-.1a4.276 4.276 0 0 0 0-4.291c-.866-.998-2.404-.998-3.366-.1l-.097.1c-.384.499-.577 1.297-.48 2.095zM343 87.297v.396l-1.355.1c.387.395.58.99.58 1.484 0 .594-.193 1.188-.677 1.584-.483.396-1.064.594-1.742.594h-.677c-.194.1-.387.297-.58.495-.097.199-.194.298-.194.595 0 .198.097.396.29.495.29.099.58.198.871.099h1.161c.581 0 1.162.099 1.646.396.387.297.58.792.58 1.287 0 .693-.29 1.287-.87 1.584a5.447 5.447 0 0 1-2.42.594c-.678 0-1.355-.099-1.936-.495-.483-.297-.677-.792-.677-1.386 0-.396.097-.792.387-1.188.29-.297.774-.495 1.161-.594-.193-.1-.387-.198-.483-.396-.097-.198-.194-.396-.194-.594.097-.496.387-.99.87-1.189-.386-.198-.676-.396-.967-.792-.58-.89-.387-2.079.29-2.772.484-.396 1.065-.594 1.742-.594.388 0 .678 0 1.065.099l2.129.198zm-5.42 7.822c0 .89.678 1.386 2.033 1.386 1.742 0 2.71-.594 2.71-1.683 0-.297-.097-.693-.388-.891-.387-.198-.87-.297-1.354-.297h-1.065c-1.355 0-1.935.495-1.935 1.485zm.485-5.743c0 .495.193.891.483 1.188.775.594 1.84.594 2.517 0 .29-.297.483-.792.483-1.188 0-.495-.096-.99-.483-1.287-.388-.297-.775-.495-1.259-.396-.483 0-.967.1-1.258.495-.29.297-.483.693-.483 1.188zM345 85.587c0-.391.1-.587.4-.587.1 0 .2.098.3.098.1.098.1.293.1.391 0 .196 0 .294-.1.391-.1.098-.2.196-.3.196-.3.098-.4-.098-.4-.489zm.7 8.413h-.6v-6.554h.6V94zM350.532 93.985c-.958.1-1.81-.3-2.554-.898a3.69 3.69 0 0 1-.958-2.495c-.106-.898.213-1.796.852-2.594.532-.699 1.49-.998 2.34-.998.746 0 1.597.3 2.023.798.532.599.851 1.397.745 2.195v.5h-5.321c-.107.798.213 1.496.745 2.095.532.499 1.277.798 2.022.698.319 0 .744 0 1.064-.1.425-.1.851-.2 1.17-.299v.599c-.319.2-.745.3-1.17.3-.107.099-.532.199-.958.199zm-.106-6.486c-.639 0-1.277.2-1.703.599-.426.499-.745 1.197-.745 1.895h4.576c0-.698-.213-1.297-.532-1.796-.426-.499-1.064-.698-1.596-.698zM359 92.107c0 .598-.204 1.096-.714 1.395-.613.398-1.327.498-2.041.498-.816 0-1.53-.1-2.245-.399v-.697c.714.299 1.429.498 2.245.498.51 0 1.122-.1 1.633-.299.306-.199.51-.498.51-.896 0-.3-.204-.698-.408-.897-.409-.299-.919-.498-1.429-.697l-1.53-.598c-.307-.2-.51-.399-.613-.598a1.842 1.842 0 0 1-.204-.797c0-.498.204-.897.714-1.196.613-.298 1.225-.498 1.837-.398.714 0 1.53.1 2.143.398l-.204.598c-.612-.299-1.225-.398-1.939-.398-.51 0-.918.1-1.428.299-.307.1-.51.398-.51.797 0 .299.101.597.407.896.51.3 1.02.498 1.531.698.51.199.918.398 1.429.597.306.1.51.3.612.598.102 0 .204.3.204.598z"/>
        <path stroke="#231F20" stroke-width="2" d="M243 80.5h116"/>
        <path d="M88.996 44.451C89.29 67.211 71.393 89.097 44.4 89 19.364 89 0 69.74 0 44.549 0 19.162 19.56-.097 44.596 0c26.992.098 44.694 21.983 44.4 44.451" fill="#0979BF" fill-rule="nonzero"/>
        <path d="M65 20.73v-.78a16.444 16.444 0 0 0-3.16-.585c-7.996-.293-15.696 1.365-23.2 3.997-5.33 1.852-8.588.877-11.254-3.9-.395-.487-.79-.975-1.283-1.462-4.048 16.379 3.653 28.175 13.229 39.289-1.678.78-3.258 1.365-4.64 2.145-4.048 2.34-6.516 5.85-6.615 10.626-.098 4.29 3.357 6.825 7.503 5.655 5.43-1.56 8.392-5.46 9.774-10.627.296-1.56 0-3.12-.691-4.582-1.876-4.095-4.443-7.994-5.825-12.284-2.863-8.579-.099-15.89 7.7-20.668 4.048-2.437 8.688-3.802 13.13-5.46 1.778-.584 3.555-.974 5.332-1.364z" fill="#FFF" fill-rule="nonzero"/>
        <path d="M34.652 20.996c2.427 0 4.348-1.965 4.348-4.446-.101-2.482-2.022-4.447-4.45-4.55-2.528.103-4.449 2.171-4.55 4.757.202 2.378 2.225 4.342 4.652 4.24z" fill="#FFF" fill-rule="nonzero"/>
    </g>
</svg>
