<svg width="19" height="19" viewBox="0 0 19 19" fill="none" xmlns="http://www.w3.org/2000/svg">
<path d="M5.52944 9.73496C5.52944 9.22332 5.17417 8.91797 4.54722 8.91797C4.29147 8.91797 4.1182 8.94263 4.02734 8.96737V10.6103C4.13476 10.6347 4.26681 10.643 4.44791 10.643C5.11681 10.643 5.52944 10.3046 5.52944 9.73496Z" fill="#1665DF"/>
<path d="M9.41358 8.93555C9.13261 8.93555 8.95144 8.96028 8.84375 8.98505V12.6251C8.95124 12.6502 9.12461 12.6502 9.2815 12.6502C10.4204 12.6582 11.1634 12.0312 11.1634 10.7022C11.1717 9.54611 10.4947 8.93555 9.41358 8.93555Z" fill="#1665DF"/>
<path d="M16.8476 6.79621H16.3913V4.59487C16.3913 4.58114 16.3891 4.5673 16.3873 4.5534C16.3866 4.46599 16.3588 4.38013 16.2989 4.31211L12.6357 0.127425C12.6345 0.126356 12.6335 0.125977 12.6327 0.124804C12.6109 0.100416 12.5854 0.0801324 12.5585 0.0625743C12.5506 0.0572276 12.5425 0.0527432 12.5342 0.0481208C12.5108 0.0353921 12.4861 0.0248366 12.4607 0.0172131C12.4538 0.0152814 12.4476 0.0124528 12.4407 0.010659C12.413 0.00410493 12.3843 0 12.3551 0H3.35213C2.94102 0 2.60704 0.334362 2.60704 0.745131V6.79604H2.15091C1.5628 6.79604 1.08594 7.2727 1.08594 7.86101V13.399C1.08594 13.9869 1.5628 14.4639 2.15091 14.4639H2.60707V18.2549C2.60707 18.6656 2.94105 19 3.35217 19H15.6463C16.057 19 16.3914 18.6656 16.3914 18.2549V14.4639H16.8476C17.4355 14.4639 17.9125 13.9869 17.9125 13.399V7.86118C17.9125 7.2729 17.4355 6.79621 16.8476 6.79621ZM3.35213 0.745269H11.9826V4.55744C11.9826 4.76327 12.1496 4.92999 12.3551 4.92999H15.6462V6.79645H3.35213V0.745269ZM12.4988 10.6598C12.4988 11.7249 12.111 12.4593 11.5737 12.9135C10.9883 13.4005 10.0966 13.6315 9.00738 13.6315C8.35542 13.6315 7.89329 13.5902 7.57924 13.5491V8.08447C8.04145 8.01034 8.64439 7.96905 9.27999 7.96905C10.336 7.96905 11.0212 8.15905 11.558 8.56326C12.1356 8.99256 12.4988 9.67753 12.4988 10.6598ZM2.78296 13.5738V8.08447C3.17072 8.01879 3.71578 7.96905 4.48344 7.96905C5.25927 7.96905 5.81243 8.11766 6.18374 8.415C6.53877 8.69549 6.77758 9.15782 6.77758 9.70264C6.77758 10.2476 6.59648 10.7098 6.26605 11.0233C5.83686 11.4279 5.20135 11.6096 4.45826 11.6096C4.29344 11.6096 4.14435 11.6012 4.02931 11.5846V13.574H2.78296V13.5738ZM15.6463 18.0532H3.35213V14.4639H15.6462V18.0532H15.6463ZM16.7259 9.04213H14.5875V10.3133H16.5852V11.3369H14.5875V13.5739H13.3252V8.01034H16.7259V9.04213Z" fill="#1665DF"/>
</svg>
