<svg width="14" height="14" viewBox="0 0 14 14" fill="none" xmlns="http://www.w3.org/2000/svg">
<path d="M9.04187 6.41504C9.52512 6.41504 9.91687 6.02329 9.91687 5.54004C9.91687 5.05679 9.52512 4.66504 9.04187 4.66504C8.55862 4.66504 8.16687 5.05679 8.16687 5.54004C8.16687 6.02329 8.55862 6.41504 9.04187 6.41504Z" fill="#CE1B86"/>
<path d="M4.95813 6.41504C5.44138 6.41504 5.83313 6.02329 5.83313 5.54004C5.83313 5.05679 5.44138 4.66504 4.95813 4.66504C4.47488 4.66504 4.08313 5.05679 4.08313 5.54004C4.08313 6.02329 4.47488 6.41504 4.95813 6.41504Z" fill="#CE1B86"/>
<path d="M7.0002 9.33171C6.13687 9.33171 5.39604 8.85921 4.9877 8.16504H4.01354C4.4802 9.36087 5.64104 10.2067 7.0002 10.2067C8.35937 10.2067 9.5202 9.36087 9.98687 8.16504H9.0127C8.60437 8.85921 7.86354 9.33171 7.0002 9.33171ZM6.99437 1.16504C3.77437 1.16504 1.16687 3.77837 1.16687 6.99837C1.16687 10.2184 3.77437 12.8317 6.99437 12.8317C10.2202 12.8317 12.8335 10.2184 12.8335 6.99837C12.8335 3.77837 10.2202 1.16504 6.99437 1.16504ZM7.0002 11.665C4.42187 11.665 2.33354 9.57671 2.33354 6.99837C2.33354 4.42004 4.42187 2.33171 7.0002 2.33171C9.57854 2.33171 11.6669 4.42004 11.6669 6.99837C11.6669 9.57671 9.57854 11.665 7.0002 11.665Z" fill="#CE1B86"/>
</svg>
