<svg width="56" height="56" viewBox="0 0 56 56" fill="none" xmlns="http://www.w3.org/2000/svg">
<path fill-rule="evenodd" clip-rule="evenodd" d="M28 56C43.464 56 56 43.464 56 28C56 12.536 43.464 0 28 0C12.536 0 0 12.536 0 28C0 43.464 12.536 56 28 56Z" fill="#FFF5CC"/>
<path d="M34.3195 20.2598C32.8395 19.0498 31.0095 18.2498 28.9995 18.0498V20.0698C30.4595 20.2498 31.7895 20.8298 32.8995 21.6898L34.3195 20.2598ZM35.9295 26.9998H37.9495C37.7495 24.9898 36.9495 23.1598 35.7395 21.6798L34.3095 23.0998C35.1695 24.2098 35.7495 25.5398 35.9295 26.9998ZM34.3095 32.8998L35.7395 34.3298C36.9495 32.8498 37.7495 31.0098 37.9495 29.0098H35.9295C35.7495 30.4598 35.1695 31.7898 34.3095 32.8998ZM28.9995 35.9298V37.9498C31.0095 37.7498 32.8395 36.9498 34.3195 35.7398L32.8895 34.3098C31.7895 35.1698 30.4595 35.7498 28.9995 35.9298ZM26.9995 35.9298V37.9498C21.9495 37.4498 17.9995 33.1898 17.9995 27.9998C17.9995 22.8098 21.9495 18.5498 26.9995 18.0498V20.0698C23.0495 20.5598 19.9995 23.9198 19.9995 27.9998C19.9995 32.0798 23.0495 35.4398 26.9995 35.9298Z" fill="#FFB200"/>
<path d="M29.942 24.844V29.42C29.942 29.9107 29.9127 30.3987 29.854 30.884C29.7953 31.364 29.718 31.8547 29.622 32.356H27.942C27.846 31.8547 27.7687 31.364 27.71 30.884C27.6513 30.3987 27.622 29.9107 27.622 29.42V24.844H29.942ZM27.35 35.244C27.35 35.052 27.3847 34.8733 27.454 34.708C27.5287 34.5427 27.6273 34.3987 27.75 34.276C27.878 34.1533 28.0273 34.0573 28.198 33.988C28.3687 33.9133 28.5553 33.876 28.758 33.876C28.9553 33.876 29.1393 33.9133 29.31 33.988C29.4807 34.0573 29.63 34.1533 29.758 34.276C29.886 34.3987 29.9847 34.5427 30.054 34.708C30.1287 34.8733 30.166 35.052 30.166 35.244C30.166 35.436 30.1287 35.6173 30.054 35.788C29.9847 35.9533 29.886 36.0973 29.758 36.22C29.63 36.3427 29.4807 36.4387 29.31 36.508C29.1393 36.5773 28.9553 36.612 28.758 36.612C28.5553 36.612 28.3687 36.5773 28.198 36.508C28.0273 36.4387 27.878 36.3427 27.75 36.22C27.6273 36.0973 27.5287 35.9533 27.454 35.788C27.3847 35.6173 27.35 35.436 27.35 35.244Z" fill="#FFB200"/>
</svg>
