<svg width="16" height="16" viewBox="0 0 16 16" xmlns="http://www.w3.org/2000/svg">
    <path d="M8 0c4.411 0 8 3.589 8 8s-3.589 8-8 8-8-3.589-8-8 3.589-8 8-8zm0 1.23A6.76 6.76 0 0 0 1.23 8 6.76 6.76 0 0 0 8 14.77 6.76 6.76 0 0 0 14.77 8 6.76 6.76 0 0 0 8 1.23zm0 1.847a3.086 3.086 0 0 1 3.077 3.077c0 .933-.435 1.762-1.096 2.327a4.31 4.31 0 0 1 2.327 3.827h-1.231A3.068 3.068 0 0 0 8 9.23a3.068 3.068 0 0 0-3.077 3.077h-1.23A4.31 4.31 0 0 1 6.018 8.48c-.66-.565-1.096-1.394-1.096-2.327A3.086 3.086 0 0 1 8 3.077zm0 1.23c-1.026 0-1.846.82-1.846 1.847C6.154 7.18 6.974 8 8 8c1.026 0 1.846-.82 1.846-1.846 0-1.027-.82-1.846-1.846-1.846z" fill="#949494" fill-rule="evenodd"/>
</svg>
