<svg width="16" height="16" viewBox="0 0 16 16" fill="none" xmlns="http://www.w3.org/2000/svg">
<path d="M8.0013 3.99935C10.528 3.99935 12.7813 5.41935 13.8813 7.66602C12.7813 9.91268 10.528 11.3327 8.0013 11.3327C5.47463 11.3327 3.2213 9.91268 2.1213 7.66602C3.2213 5.41935 5.47463 3.99935 8.0013 3.99935ZM8.0013 2.66602C4.66797 2.66602 1.8213 4.73935 0.667969 7.66602C1.8213 10.5927 4.66797 12.666 8.0013 12.666C11.3346 12.666 14.1813 10.5927 15.3346 7.66602C14.1813 4.73935 11.3346 2.66602 8.0013 2.66602ZM8.0013 5.99935C8.9213 5.99935 9.66797 6.74602 9.66797 7.66602C9.66797 8.58602 8.9213 9.33268 8.0013 9.33268C7.0813 9.33268 6.33463 8.58602 6.33463 7.66602C6.33463 6.74602 7.0813 5.99935 8.0013 5.99935ZM8.0013 4.66602C6.34797 4.66602 5.0013 6.01268 5.0013 7.66602C5.0013 9.31935 6.34797 10.666 8.0013 10.666C9.65463 10.666 11.0013 9.31935 11.0013 7.66602C11.0013 6.01268 9.65463 4.66602 8.0013 4.66602Z" fill="#7D7D7D"/>
</svg>
